<mxfile host="app.diagrams.net" modified="2021-12-16T06:08:57.856Z" agent="5.0 (Macintosh; Intel Mac OS X 10_15_7) AppleWebKit/537.36 (KHTML, like Gecko) Chrome/92.0.4515.107 Safari/537.36 Edg/92.0.902.62" etag="l15dixNlVatMpIqkZgnT" version="15.9.4" type="github">
  <diagram id="TiXqZZJ85u892QHHhhHt" name="第 1 页">
    <mxGraphModel dx="1773" dy="536" grid="1" gridSize="10" guides="1" tooltips="1" connect="1" arrows="1" fold="1" page="1" pageScale="1" pageWidth="827" pageHeight="1169" math="0" shadow="0">
      <root>
        <mxCell id="0" />
        <mxCell id="1" parent="0" />
        <mxCell id="gx_Uk5wFZC5Ibij1bNUG-5" value="" style="edgeStyle=orthogonalEdgeStyle;rounded=0;orthogonalLoop=1;jettySize=auto;html=1;" edge="1" parent="1" source="gx_Uk5wFZC5Ibij1bNUG-2" target="gx_Uk5wFZC5Ibij1bNUG-4">
          <mxGeometry relative="1" as="geometry" />
        </mxCell>
        <mxCell id="gx_Uk5wFZC5Ibij1bNUG-6" value="秒杀开始之前，提前将库存信息放入缓存中" style="edgeLabel;html=1;align=center;verticalAlign=middle;resizable=0;points=[];" vertex="1" connectable="0" parent="gx_Uk5wFZC5Ibij1bNUG-5">
          <mxGeometry x="-0.0213" y="-2" relative="1" as="geometry">
            <mxPoint as="offset" />
          </mxGeometry>
        </mxCell>
        <mxCell id="gx_Uk5wFZC5Ibij1bNUG-2" value="DB" style="strokeWidth=2;html=1;shape=mxgraph.flowchart.database;whiteSpace=wrap;" vertex="1" parent="1">
          <mxGeometry x="354" y="400" width="60" height="60" as="geometry" />
        </mxCell>
        <mxCell id="gx_Uk5wFZC5Ibij1bNUG-3" value="库存表和订单表&lt;br&gt;update order set stock=stock-1，version=version+1 where goodsId=？ and version=version" style="text;html=1;strokeColor=none;fillColor=none;align=left;verticalAlign=middle;whiteSpace=wrap;rounded=0;labelPosition=center;verticalLabelPosition=middle;" vertex="1" parent="1">
          <mxGeometry x="440" y="372.5" width="260" height="95" as="geometry" />
        </mxCell>
        <mxCell id="gx_Uk5wFZC5Ibij1bNUG-4" value="Redis&lt;br&gt;&lt;br&gt;存放库存" style="rounded=0;whiteSpace=wrap;html=1;" vertex="1" parent="1">
          <mxGeometry x="140" y="283" width="340" height="60" as="geometry" />
        </mxCell>
        <mxCell id="gx_Uk5wFZC5Ibij1bNUG-7" value="&lt;h1&gt;Redis说明&lt;/h1&gt;&lt;p&gt;提前将秒杀产品放入redis中，但当并发量比较大时，同时有用户购买同一个商品，取到的库存数时一样的，这样就会导致超卖，解决的方法就是分布式锁&lt;/p&gt;&lt;p&gt;&lt;font color=&quot;#6666ff&quot;&gt;当然还有一种方式，当在redis减库存时，使用原子方法。&lt;/font&gt;&lt;/p&gt;" style="text;html=1;strokeColor=none;fillColor=none;spacing=5;spacingTop=-20;whiteSpace=wrap;overflow=hidden;rounded=0;" vertex="1" parent="1">
          <mxGeometry x="-50" y="252.5" width="190" height="177.5" as="geometry" />
        </mxCell>
      </root>
    </mxGraphModel>
  </diagram>
</mxfile>
